<svg xmlns="http://www.w3.org/2000/svg" width="805" height="600"><rect width="805" height="600" x="0" y="0" fill="#FFFFFF" id="background"/><g id="viz"><g transform="translate(0,0)"><g transform="translate(43,20)"><g id="primera" fill="#ff7f0e"><rect x="0.9986719787516449" y="485.33333333333337" width="61.584772023019035" height="74.66666666666663"/><rect x="63.58211598052234" y="466.6666666666667" width="61.584772023019035" height="93.33333333333331"/><rect x="126.16555998229303" y="504" width="61.584772023019035" height="56"/><rect x="188.74900398406373" y="485.33333333333337" width="61.584772023019035" height="74.66666666666663"/><rect x="251.33244798583442" y="532" width="61.584772023019035" height="28"/><rect x="313.9158919876051" y="532" width="61.584772023019035" height="28"/><rect x="376.4993359893758" y="513.3333333333333" width="61.584772023019035" height="46.66666666666674"/><rect x="439.0827799911465" y="560" width="61.584772023019035" height="0"/><rect x="501.6662239929172" y="532" width="61.584772023019035" height="28"/><rect x="564.2496679946879" y="532" width="61.584772023019035" height="28"/><rect x="626.8331119964586" y="504" width="61.584772023019035" height="56"/><rect x="689.4165559982292" y="485.33333333333337" width="61.584772023019035" height="74.66666666666663"/></g><g id="segunda" fill="#eba676"><rect x="0.9986719787516449" y="410.6666666666667" width="61.584772023019035" height="74.66666666666663"/><rect x="63.58211598052234" y="392" width="61.584772023019035" height="74.66666666666663"/><rect x="126.16555998229303" y="429.33333333333337" width="61.584772023019035" height="74.66666666666663"/><rect x="188.74900398406373" y="410.6666666666667" width="61.584772023019035" height="74.66666666666663"/><rect x="251.33244798583442" y="457.3333333333333" width="61.584772023019035" height="74.66666666666663"/><rect x="313.9158919876051" y="457.3333333333333" width="61.584772023019035" height="74.66666666666663"/><rect x="376.4993359893758" y="420" width="61.584772023019035" height="93.33333333333331"/><rect x="439.0827799911465" y="485.33333333333337" width="61.584772023019035" height="74.66666666666663"/><rect x="501.6662239929172" y="457.3333333333333" width="61.584772023019035" height="74.66666666666663"/><rect x="564.2496679946879" y="457.3333333333333" width="61.584772023019035" height="74.66666666666663"/><rect x="626.8331119964586" y="429.33333333333337" width="61.584772023019035" height="74.66666666666663"/><rect x="689.4165559982292" y="410.6666666666667" width="61.584772023019035" height="74.66666666666663"/></g><g id="tercera" fill="#eb3e31"><rect x="0.9986719787516449" y="335.99999999999994" width="61.584772023019035" height="74.66666666666669"/><rect x="63.58211598052234" y="317.3333333333333" width="61.584772023019035" height="74.66666666666663"/><rect x="126.16555998229303" y="354.66666666666663" width="61.584772023019035" height="74.66666666666669"/><rect x="188.74900398406373" y="317.3333333333333" width="61.584772023019035" height="93.33333333333331"/><rect x="251.33244798583442" y="429.3333333333333" width="61.584772023019035" height="28"/><rect x="313.9158919876051" y="382.6666666666667" width="61.584772023019035" height="74.66666666666663"/><rect x="376.4993359893758" y="326.66666666666663" width="61.584772023019035" height="93.33333333333331"/><rect x="439.0827799911465" y="410.6666666666667" width="61.584772023019035" height="74.66666666666663"/><rect x="501.6662239929172" y="382.6666666666667" width="61.584772023019035" height="74.66666666666663"/><rect x="564.2496679946879" y="382.6666666666667" width="61.584772023019035" height="74.66666666666663"/><rect x="626.8331119964586" y="354.66666666666663" width="61.584772023019035" height="74.66666666666669"/><rect x="689.4165559982292" y="335.99999999999994" width="61.584772023019035" height="74.66666666666669"/></g><g id="cuarta" fill="#eb5e31"><rect x="0.9986719787516449" y="261.3333333333333" width="61.584772023019035" height="74.66666666666663"/><rect x="63.58211598052234" y="224" width="61.584772023019035" height="93.33333333333331"/><rect x="126.16555998229303" y="354.66666666666663" width="61.584772023019035" height="0"/><rect x="188.74900398406373" y="224" width="61.584772023019035" height="93.33333333333331"/><rect x="251.33244798583442" y="354.66666666666663" width="61.584772023019035" height="74.66666666666663"/><rect x="313.9158919876051" y="289.3333333333333" width="61.584772023019035" height="93.33333333333337"/><rect x="376.4993359893758" y="233.33333333333331" width="61.584772023019035" height="93.33333333333331"/><rect x="439.0827799911465" y="224" width="61.584772023019035" height="186.66666666666663"/><rect x="501.6662239929172" y="308" width="61.584772023019035" height="74.66666666666663"/><rect x="564.2496679946879" y="382.6666666666667" width="61.584772023019035" height="0"/><rect x="626.8331119964586" y="280" width="61.584772023019035" height="74.66666666666663"/><rect x="689.4165559982292" y="242.6666666666666" width="61.584772023019035" height="93.33333333333331"/></g><g id="quinta" fill="#c47d15"><rect x="0.9986719787516449" y="186.66666666666669" width="61.584772023019035" height="74.66666666666663"/><rect x="63.58211598052234" y="149.33333333333331" width="61.584772023019035" height="74.66666666666669"/><rect x="126.16555998229303" y="280" width="61.584772023019035" height="74.66666666666663"/><rect x="188.74900398406373" y="149.33333333333331" width="61.584772023019035" height="74.66666666666669"/><rect x="251.33244798583442" y="280" width="61.584772023019035" height="74.66666666666663"/><rect x="313.9158919876051" y="214.66666666666666" width="61.584772023019035" height="74.66666666666663"/><rect x="376.4993359893758" y="158.66666666666666" width="61.584772023019035" height="74.66666666666663"/><rect x="439.0827799911465" y="149.33333333333331" width="61.584772023019035" height="74.66666666666669"/><rect x="501.6662239929172" y="233.33333333333331" width="61.584772023019035" height="74.66666666666663"/><rect x="564.2496679946879" y="308" width="61.584772023019035" height="74.66666666666663"/><rect x="626.8331119964586" y="205.33333333333334" width="61.584772023019035" height="74.66666666666663"/><rect x="689.4165559982292" y="167.99999999999997" width="61.584772023019035" height="74.66666666666663"/></g><g id="sexta" fill="#8c564b"><rect x="0.9986719787516449" y="112.00000000000004" width="61.584772023019035" height="74.66666666666663"/><rect x="63.58211598052234" y="74.66666666666666" width="61.584772023019035" height="74.66666666666663"/><rect x="126.16555998229303" y="205.33333333333334" width="61.584772023019035" height="74.66666666666663"/><rect x="188.74900398406373" y="74.66666666666666" width="61.584772023019035" height="74.66666666666663"/><rect x="251.33244798583442" y="280" width="61.584772023019035" height="0"/><rect x="313.9158919876051" y="140" width="61.584772023019035" height="74.66666666666663"/><rect x="376.4993359893758" y="84.00000000000001" width="61.584772023019035" height="74.66666666666663"/><rect x="439.0827799911465" y="74.66666666666666" width="61.584772023019035" height="74.66666666666663"/><rect x="501.6662239929172" y="158.66666666666666" width="61.584772023019035" height="74.66666666666663"/><rect x="564.2496679946879" y="233.33333333333331" width="61.584772023019035" height="74.66666666666663"/><rect x="626.8331119964586" y="130.66666666666669" width="61.584772023019035" height="74.66666666666663"/><rect x="689.4165559982292" y="93.33333333333331" width="61.584772023019035" height="74.66666666666663"/></g><g id="septima" fill="#ebb531"><rect x="0.9986719787516449" y="65.33333333333334" width="61.584772023019035" height="46.66666666666674"/><rect x="63.58211598052234" y="27.999999999999964" width="61.584772023019035" height="46.66666666666674"/><rect x="126.16555998229303" y="158.66666666666666" width="61.584772023019035" height="46.66666666666674"/><rect x="188.74900398406373" y="27.999999999999964" width="61.584772023019035" height="46.66666666666674"/><rect x="251.33244798583442" y="280" width="61.584772023019035" height="0"/><rect x="313.9158919876051" y="93.33333333333331" width="61.584772023019035" height="46.66666666666674"/><rect x="376.4993359893758" y="37.333333333333385" width="61.584772023019035" height="46.66666666666674"/><rect x="439.0827799911465" y="0" width="61.584772023019035" height="74.66666666666663"/><rect x="501.6662239929172" y="112.00000000000004" width="61.584772023019035" height="46.66666666666674"/><rect x="564.2496679946879" y="233.33333333333331" width="61.584772023019035" height="0"/><rect x="626.8331119964586" y="102.66666666666674" width="61.584772023019035" height="28"/><rect x="689.4165559982292" y="46.666666666666686" width="61.584772023019035" height="46.66666666666674"/></g><g id="xAxis" transform="translate(0,560)" fill="none" font-size="10" font-family="sans-serif" text-anchor="middle"><path class="domain" stroke="currentColor" d="M0,0H752"/><g class="tick" opacity="1" transform="translate(31.791057990261162,0)"><line stroke="currentColor" y2="6"/><text fill="currentColor" y="9" dy="0.71em">BROWNE PRIETO, SOFÍA</text></g><g class="tick" opacity="1" transform="translate(94.37450199203185,0)"><line stroke="currentColor" y2="6"/><text fill="currentColor" y="9" dy="0.71em">CAMPAZZO FUENTEALBA, MAGDALENA</text></g><g class="tick" opacity="1" transform="translate(156.95794599380255,0)"><line stroke="currentColor" y2="6"/><text fill="currentColor" y="9" dy="0.71em">CORDERO BRUMMER, MARÍA JOSÉ</text></g><g class="tick" opacity="1" transform="translate(219.54138999557324,0)"><line stroke="currentColor" y2="6"/><text fill="currentColor" y="9" dy="0.71em">CORTHORN PEDRASA, MAGDALENA</text></g><g class="tick" opacity="1" transform="translate(282.12483399734396,0)"><line stroke="currentColor" y2="6"/><text fill="currentColor" y="9" dy="0.71em">CUYATE MIMBELA, BRAYAN</text></g><g class="tick" opacity="1" transform="translate(344.7082779991146,0)"><line stroke="currentColor" y2="6"/><text fill="currentColor" y="9" dy="0.71em">CVITANIC VERGARA, TOMISLAV</text></g><g class="tick" opacity="1" transform="translate(407.29172200088533,0)"><line stroke="currentColor" y2="6"/><text fill="currentColor" y="9" dy="0.71em">FLORES HIDALGO, VALENTINA</text></g><g class="tick" opacity="1" transform="translate(469.875166002656,0)"><line stroke="currentColor" y2="6"/><text fill="currentColor" y="9" dy="0.71em">LAGOS NOVA, CONSTANZA</text></g><g class="tick" opacity="1" transform="translate(532.4586100044268,0)"><line stroke="currentColor" y2="6"/><text fill="currentColor" y="9" dy="0.71em">NAVARRETE SANTIBÁÑEZ, SOFÍA</text></g><g class="tick" opacity="1" transform="translate(595.0420540061974,0)"><line stroke="currentColor" y2="6"/><text fill="currentColor" y="9" dy="0.71em">OLIVARES CANALES, DANIELA</text></g><g class="tick" opacity="1" transform="translate(657.6254980079681,0)"><line stroke="currentColor" y2="6"/><text fill="currentColor" y="9" dy="0.71em">OLIVOS LEIVA, MÓNICA</text></g><g class="tick" opacity="1" transform="translate(720.2089420097387,0)"><line stroke="currentColor" y2="6"/><text fill="currentColor" y="9" dy="0.71em">WURTH GONZÁLEZ, FRANCISCA</text></g></g><g id="yAxis" fill="none" font-size="10" font-family="sans-serif" text-anchor="end"><path class="domain" stroke="currentColor" d="M0,560V0"/><g class="tick" opacity="1" transform="translate(0,560)"><line stroke="currentColor" x2="-6"/><text fill="currentColor" x="-9" dy="0.32em">0.0</text></g><g class="tick" opacity="1" transform="translate(0,513.3333333333333)"><line stroke="currentColor" x2="-6"/><text fill="currentColor" x="-9" dy="0.32em">0.5</text></g><g class="tick" opacity="1" transform="translate(0,466.6666666666667)"><line stroke="currentColor" x2="-6"/><text fill="currentColor" x="-9" dy="0.32em">1.0</text></g><g class="tick" opacity="1" transform="translate(0,420)"><line stroke="currentColor" x2="-6"/><text fill="currentColor" x="-9" dy="0.32em">1.5</text></g><g class="tick" opacity="1" transform="translate(0,373.33333333333337)"><line stroke="currentColor" x2="-6"/><text fill="currentColor" x="-9" dy="0.32em">2.0</text></g><g class="tick" opacity="1" transform="translate(0,326.66666666666663)"><line stroke="currentColor" x2="-6"/><text fill="currentColor" x="-9" dy="0.32em">2.5</text></g><g class="tick" opacity="1" transform="translate(0,280)"><line stroke="currentColor" x2="-6"/><text fill="currentColor" x="-9" dy="0.32em">3.0</text></g><g class="tick" opacity="1" transform="translate(0,233.33333333333331)"><line stroke="currentColor" x2="-6"/><text fill="currentColor" x="-9" dy="0.32em">3.5</text></g><g class="tick" opacity="1" transform="translate(0,186.66666666666669)"><line stroke="currentColor" x2="-6"/><text fill="currentColor" x="-9" dy="0.32em">4.0</text></g><g class="tick" opacity="1" transform="translate(0,140)"><line stroke="currentColor" x2="-6"/><text fill="currentColor" x="-9" dy="0.32em">4.5</text></g><g class="tick" opacity="1" transform="translate(0,93.33333333333331)"><line stroke="currentColor" x2="-6"/><text fill="currentColor" x="-9" dy="0.32em">5.0</text></g><g class="tick" opacity="1" transform="translate(0,46.666666666666686)"><line stroke="currentColor" x2="-6"/><text fill="currentColor" x="-9" dy="0.32em">5.5</text></g><g class="tick" opacity="1" transform="translate(0,0)"><line stroke="currentColor" x2="-6"/><text fill="currentColor" x="-9" dy="0.32em">6.0</text></g></g><text y="556" x="752" text-anchor="end" style="font-family: Arial, sans-serif; font-size: 12px; fill: rgb(123, 123, 123); font-weight: bold;">nombre</text></g><text x="4" y="4" style="font-family: Arial, sans-serif; font-size: 12px; fill: black; font-weight: bold; dominant-baseline: hanging;"/></g><g id="grid"><rect x="0" y="0" width="805" height="600" fill="none" stroke="#ccc"/></g></g></svg>